<?xml version="1.0" standalone="no"?>
<!DOCTYPE svg PUBLIC "-//W3C//DTD SVG 20010904//EN"
 "http://www.w3.org/TR/2001/REC-SVG-20010904/DTD/svg10.dtd">
<svg version="1.0" xmlns="http://www.w3.org/2000/svg"
 width="180.000000pt" height="180.000000pt" viewBox="0 0 180.000000 180.000000"
 preserveAspectRatio="xMidYMid meet">
<metadata>
Created by potrace 1.11, written by Peter Selinger 2001-2013
</metadata>
<g transform="translate(0.000000,180.000000) scale(0.100000,-0.100000)"
fill="#000000" stroke="none">
<path d="M321 1766 c-48 -50 -73 -137 -77 -279 -4 -98 -1 -131 16 -187 11 -37
20 -81 20 -99 0 -27 -4 -31 -25 -31 -38 0 -48 -37 -42 -156 4 -91 8 -108 38
-165 42 -79 88 -127 127 -135 23 -5 31 -13 36 -36 7 -36 40 -75 142 -169 l74
-69 -105 0 c-148 0 -206 -27 -246 -115 -15 -33 -19 -65 -19 -182 l0 -143 631
0 631 0 -4 143 c-3 128 -6 147 -28 192 -16 32 -41 61 -68 80 -41 28 -50 30
-157 33 l-114 4 69 58 c73 64 101 102 120 166 11 36 16 41 43 41 39 0 103 67
143 150 25 51 28 67 28 168 1 96 -2 116 -17 133 -17 18 -18 27 -7 95 15 101 6
328 -15 389 -12 33 -34 63 -72 98 l-55 50 -517 0 -517 0 -33 -34z m940 -296
c15 -71 64 -215 84 -246 24 -38 19 -44 -41 -44 -49 0 -54 2 -40 15 8 8 18 15
23 15 4 0 15 5 23 10 12 7 11 13 -10 34 -28 31 -63 33 -171 11 -115 -22 -139
-24 -139 -12 0 18 -48 -36 -52 -58 -3 -17 2 -19 30 -17 55 6 35 -15 -27 -27
-72 -14 -191 3 -191 27 0 9 7 13 19 9 31 -8 45 7 36 39 -4 16 -10 23 -12 17
-3 -10 -9 -9 -21 3 -15 15 -16 15 -23 -2 -4 -11 -8 -14 -8 -8 -1 11 -93 37
-176 49 -33 5 -48 1 -79 -20 -31 -21 -36 -22 -32 -8 3 10 10 41 16 68 26 128
21 119 73 125 26 3 47 2 47 -2 0 -4 49 -8 109 -8 85 0 110 -3 114 -14 9 -24
85 -29 164 -11 63 14 80 24 145 79 41 35 82 76 93 92 l19 29 8 -45 c4 -25 13
-70 19 -100z m-303 -10 c-9 -6 -45 -12 -80 -15 l-63 -4 60 9 c33 6 64 12 70
14 20 9 30 5 13 -4z m-476 -247 c27 -25 22 -33 -22 -33 -44 0 -45 1 -28 30 16
24 26 25 50 3z m-183 -105 c17 -18 31 -37 31 -42 0 -5 -9 3 -21 18 -11 14 -29
26 -40 26 -10 0 -19 7 -19 15 0 24 16 18 49 -17z m460 24 c62 -10 71 -29 41
-91 -42 -91 -43 -91 -188 -91 -107 0 -132 3 -158 19 -37 23 -64 78 -44 91 9 5
11 20 7 44 l-6 36 152 -1 c84 0 172 -4 196 -7z m600 -44 c-3 -115 -38 -138
-208 -138 -66 0 -127 3 -136 7 -17 6 -75 115 -75 140 0 31 54 39 257 42 l163
2 -1 -53z m161 37 c0 -8 -4 -15 -9 -15 -13 0 -22 16 -14 24 11 11 23 6 23 -9z
m-1273 -47 c-3 -8 -6 -5 -6 6 -1 11 2 17 5 13 3 -3 4 -12 1 -19z m47 -7 c17
-19 17 -20 -3 -31 -19 -10 -21 -8 -21 20 0 35 1 36 24 11z m1206 -11 c0 -27
-2 -29 -19 -18 -15 9 -17 15 -8 30 17 26 27 22 27 -12z m-585 -6 c9 -9 23 -34
32 -56 28 -71 47 -78 200 -78 170 0 205 16 239 107 15 38 15 38 9 -30 -3 -38
-17 -97 -30 -132 -13 -35 -34 -101 -46 -147 -20 -72 -29 -90 -73 -137 -84 -88
-197 -168 -259 -181 -79 -18 -212 -9 -267 18 -51 25 -244 201 -264 241 -7 14
-19 57 -25 95 -7 38 -23 95 -36 125 -12 31 -26 83 -30 116 l-7 60 24 -45 c12
-25 38 -55 57 -67 31 -21 45 -23 171 -23 156 0 175 7 203 78 19 47 42 72 67
72 10 0 26 -7 35 -16z m-621 -39 c7 10 18 15 24 11 18 -11 14 -24 -7 -31 -31
-10 -43 -59 -24 -103 27 -64 29 -67 59 -70 35 -4 39 -9 48 -44 5 -23 3 -28
-13 -28 -47 0 -125 135 -135 234 l-7 60 21 -24 c19 -22 21 -23 34 -5z m1184
-1 c6 -11 11 -13 16 -5 18 28 29 9 23 -43 -9 -91 -88 -216 -136 -216 -25 0
-24 -2 -10 39 9 25 17 31 38 31 67 0 109 127 56 168 -14 11 -25 25 -25 31 0
17 28 13 38 -5z m-38 -99 c0 -33 -10 -54 -30 -65 -16 -9 -16 -6 -1 45 16 54
31 64 31 20z m-1066 -74 c-5 -6 -34 20 -44 39 -5 9 -6 27 -3 40 6 21 9 18 28
-26 12 -27 21 -51 19 -53z m696 -475 c-17 -44 -78 -66 -192 -66 -53 0 -108 4
-122 10 -31 12 -66 45 -66 64 0 12 7 12 48 -1 71 -24 224 -21 287 4 28 11 51
19 53 18 1 -1 -2 -14 -8 -29z"/>
<path d="M558 1083 c-11 -3 -15 -10 -11 -21 9 -27 34 -42 68 -42 37 0 62 17
67 45 3 17 -3 20 -52 21 -30 1 -63 0 -72 -3z"/>
<path d="M1150 1068 c-66 -25 -68 -27 -50 -38 38 -24 100 -6 113 32 9 27 -3
28 -63 6z"/>
<path d="M816 968 c-14 -18 -23 -34 -21 -36 2 -2 20 1 40 8 21 7 52 10 71 7
39 -7 42 0 14 31 -31 33 -73 29 -104 -10z"/>
<path d="M1010 872 c0 -4 5 -13 12 -20 13 -13 -7 -22 -85 -41 -60 -14 -93 -14
-120 0 -11 7 -37 12 -57 13 -31 1 -35 4 -32 24 2 26 -21 26 -26 1 -5 -29 25
-53 69 -57 75 -6 152 -5 207 3 42 6 56 13 64 31 8 17 8 27 -2 39 -13 16 -30
20 -30 7z"/>
<path d="M910 694 c-96 -7 -190 -13 -209 -13 -33 -1 -34 -1 -16 -21 10 -11 36
-29 59 -40 38 -18 50 -19 155 -10 110 10 116 12 158 46 39 32 55 56 36 53 -5
-1 -87 -7 -183 -15z m125 -34 c-16 -16 -43 -21 -138 -30 -106 -9 -121 -8 -150
7 l-32 18 30 3 c30 3 237 18 285 21 24 1 24 1 5 -19z"/>
<path d="M910 578 c-36 -5 -84 -7 -107 -5 -48 5 -54 -3 -20 -25 35 -23 60 -26
120 -16 37 6 63 18 78 34 25 27 27 26 -71 12z"/>
</g>
</svg>
